<svg width="270" height="90" viewBox="0 0 270 90" fill="none" xmlns="http://www.w3.org/2000/svg">
<path fill-rule="evenodd" clip-rule="evenodd" d="M80 0H10C4.47715 0 0 4.47714 0 9.99999V79.1112C0 84.6341 4.47715 89.1112 9.99999 89.1112H260C265.523 89.1112 270 84.6341 270 79.1113V10C270 4.47715 265.523 0 260 0H190V1H260C264.971 1 269 5.02944 269 10V79.1113C269 84.0818 264.971 88.1112 260 88.1112H9.99999C5.02943 88.1112 1 84.0818 1 79.1112V9.99999C1 5.02943 5.02943 1 10 1H80V0Z" fill="#CBCED9"/>
</svg>
